<?xml version="1.0" encoding="UTF-8"?>
<svg id="Layer_1" data-name="Layer 1" xmlns="http://www.w3.org/2000/svg" viewBox="0 0 1063.95 233.45">
  <defs>
    <style>
      .cls-1 {
        fill: #ee3331;
      }

      .cls-1, .cls-2 {
        stroke-width: 0px;
      }

      .cls-2 {
        fill: #231f20;
      }
    </style>
  </defs>
  <path class="cls-2" d="m145.7,101.97c0,23.24-16.99,37.4-38,37.4h-11.92v29.5h-29.8v-104.3h41.72c21.01,0,38,14.15,38,37.4Zm-29.8,0c0-5.36-3.73-8.49-8.19-8.49h-11.92v16.99h11.92c4.47,0,8.19-3.13,8.19-8.49Z"/>
  <path class="cls-2" d="m191.44,148.46c4.62,0,8.34-1.19,12.67-4.77l18.03,15.2c-7.75,8.34-19.52,12.07-31.59,12.07-26.08,0-42.17-17.14-42.17-39.04s16.69-39.63,39.63-39.63,38.89,16.84,38.89,39.04c0,3.13-.3,6.11-1.19,9.69h-49.47c2.98,6.26,9.24,7.45,15.2,7.45Zm9.39-25.18c-1.94-6.71-6.71-8.94-12.07-8.94-5.66,0-10.73,2.83-12.96,8.94h25.03Z"/>
  <path class="cls-2" d="m285.01,92.88v29.8c-10.73-1.49-22.35,3.72-22.35,18.48v27.71h-27.57v-74.5h27.57v14.45c2.83-10.28,11.77-15.94,22.35-15.94Z"/>
  <path class="cls-2" d="m370.09,94.37v74.5h-27.56v-6.71c-4.47,5.51-11.03,8.79-19.97,8.79-20.26,0-34.12-16.84-34.12-39.34s13.86-39.34,34.12-39.34c8.94,0,15.5,3.28,19.97,8.79v-6.71h27.56Zm-27.56,37.25c0-7.9-5.22-14.01-13.26-14.01s-13.26,6.11-13.26,14.01,5.21,14.01,13.26,14.01,13.26-6.11,13.26-14.01Z"/>
  <path class="cls-2" d="m456.51,125.81v43.06h-27.57v-40.08c0-6.71-3.58-9.98-9.24-9.98-6.71,0-10.13,4.47-10.13,11.77v38.29h-27.57v-74.5h27.57v7.3c4.47-6.11,11.32-9.39,19.97-9.39,15.5,0,26.97,10.43,26.97,33.53Z"/>
  <path class="cls-2" d="m545.76,94.37v74.5h-27.57v-6.71c-4.47,5.51-11.03,8.79-19.97,8.79-20.26,0-34.12-16.84-34.12-39.34s13.86-39.34,34.12-39.34c8.94,0,15.5,3.28,19.97,8.79v-6.71h27.57Zm-27.57,37.25c0-7.9-5.22-14.01-13.26-14.01s-13.26,6.11-13.26,14.01,5.21,14.01,13.26,14.01,13.26-6.11,13.26-14.01Z"/>
  <path class="cls-2" d="m593.44,64.57h8.64l34.42,94.02,34.57-94.02h8.49l-38.89,104.3h-8.34l-38.89-104.3Z"/>
  <path class="cls-2" d="m687.9,70.39c0-3.13,2.68-5.81,5.96-5.81s5.96,2.68,5.96,5.81-2.68,5.96-5.96,5.96-5.96-2.68-5.96-5.96Zm2.24,23.99h7.45v74.5h-7.45v-74.5Z"/>
  <path class="cls-2" d="m715.47,131.63c0-22.05,17.43-38.89,39.19-38.89s39.04,16.84,39.04,38.89-17.43,38.89-39.04,38.89-39.19-16.84-39.19-38.89Zm70.63,0c0-17.73-13.71-31.74-31.44-31.74s-31.59,14.01-31.59,31.74,13.86,31.74,31.59,31.74,31.44-14.01,31.44-31.74Z"/>
  <path class="cls-2" d="m860.3,149.36c0,12.22-10.73,21.16-26.67,21.16-14.9,0-24.73-7-28.31-16.54l6.41-3.73c2.68,8.05,10.73,13.11,21.9,13.11,10.43,0,19.22-4.62,19.22-14.01,0-20.26-45.15-8.64-45.15-35.46,0-11.77,10.13-21.16,25.33-21.16,12.07,0,21.31,5.81,25.33,14.9l-6.26,3.58c-3.13-7.75-10.88-11.32-19.07-11.32-9.69,0-17.88,5.07-17.88,14.01,0,19.97,45.15,8.2,45.15,35.46Z"/>
  <path class="cls-2" d="m949.25,94.37v74.5h-7.6v-16.84c-6.26,11.18-17.73,18.48-32.04,18.48-21.16,0-38.59-16.84-38.59-38.89s17.43-38.89,38.59-38.89c14.3,0,25.78,7.3,32.04,18.48v-16.84h7.6Zm-7.6,37.25c0-17.73-13.71-31.74-31.44-31.74s-31.59,14.01-31.59,31.74,13.86,31.74,31.59,31.74,31.44-14.01,31.44-31.74Z"/>
  <path class="cls-1" d="m965.94,153.98c0-9.54,7.6-17.14,17.14-17.14s17.13,7.6,17.13,17.14-7.6,17.14-17.13,17.14-17.14-7.6-17.14-17.14Z"/>
</svg>